<?xml version="1.0" encoding="UTF-8"?>
<svg width="21px" height="21px" viewBox="0 0 21 21" version="1.1" xmlns="http://www.w3.org/2000/svg" xmlns:xlink="http://www.w3.org/1999/xlink">
    <title>我的信息备份 3</title>
    <g id="统一头部组件" stroke="none" stroke-width="1" fill="none" fill-rule="evenodd">
        <g id="统一头部组件1" transform="translate(-1596.000000, -166.000000)">
            <g id="编组-9备份-3" transform="translate(1570.000000, 53.001000)">
                <g id="我的信息备份-3" transform="translate(26.500000, 113.283054)">
                    <rect id="矩形" fill="#E6F0FA" x="0" y="0" width="20" height="20" rx="1"></rect>
                    <g id="用户-(2)" opacity="0.800000012" transform="translate(5.000000, 4.040787)" fill="#0067CC" fill-rule="nonzero">
                        <path d="M5,6.90930226 C3.60569142,6.90930226 2.47255819,5.87225214 2.47255819,4.58785792 L2.47255819,2.32188576 C2.47255819,1.03705012 3.59892293,0 5,0 C6.39430858,0 7.52744181,1.03719726 7.52744181,2.32144434 L7.52744181,4.5874165 C7.52744181,5.85842088 6.39430858,6.90930226 5,6.90930226 L5,6.90930226 Z" id="路径"></path>
                        <path d="M0,10.4624643 L0,9.84373621 C0.000487236072,8.53152839 1.06412013,7.46789549 2.37632795,7.46740826 L7.62367205,7.46740826 C8.93587987,7.46789549 9.99951276,8.53152839 10,9.84373621 L10,10.4617286 C10,11.2659526 9.34826319,11.9180188 8.54403932,11.918425 L1.45596068,11.918425 C0.652024002,11.9180191 0.000405926198,11.266401 0,10.4624643 L0,10.4624643 Z" id="路径"></path>
                    </g>
                </g>
            </g>
        </g>
    </g>
</svg>