<?xml version="1.0" encoding="UTF-8"?>
<svg width="21px" height="21px" viewBox="0 0 21 21" version="1.1" xmlns="http://www.w3.org/2000/svg" xmlns:xlink="http://www.w3.org/1999/xlink">
    <title>优惠券</title>
    <g id="统一头部组件" stroke="none" stroke-width="1" fill="none" fill-rule="evenodd">
        <g id="统一头部组件1" transform="translate(-1596.000000, -321.000000)">
            <g id="编组-9备份-3" transform="translate(1570.000000, 53.001000)">
                <g id="优惠券" transform="translate(26.500000, 268.283054)">
                    <rect id="矩形备份-3" fill="#FFE8DB" x="0" y="0" width="20" height="20" rx="1"></rect>
                    <g id="优惠券-(5)" opacity="0.800000012" transform="translate(4.020130, 4.850000)" fill="#FF5E03" fill-rule="nonzero">
                        <path d="M11.3660233,3.59165803 C11.7209197,3.45957254 11.9597409,3.12468912 11.9597409,2.7471114 L11.9597409,0.907253886 C11.9597409,0.405595855 11.5541451,0 11.052487,0 L0.907253886,0 C0.405595855,0 0,0.405595855 0,0.907253886 L0,2.76712435 C0,3.14470207 0.237487047,3.4782513 0.591049223,3.61167098 C1.23413212,3.85449482 1.69176166,4.47623057 1.69176166,5.20470207 C1.69176166,5.93317358 1.23413212,6.55490933 0.591049223,6.79773316 C0.237487047,6.93115285 0,7.26470207 0,7.64227979 L0,9.39274611 C0,9.89440415 0.405595855,10.3 0.907253886,10.3 L11.0511528,10.3 C11.5528109,10.3 11.9584067,9.89440415 11.9584067,9.39274611 L11.9584067,7.62893782 C11.9584067,7.25002591 11.7195855,6.91647668 11.3646891,6.78439119 C10.7176036,6.54156736 10.2573057,5.91849741 10.2573057,5.18735751 C10.2573057,4.45621762 10.7176036,3.83314767 11.3660233,3.59165803 Z M8.52284974,6.46151554 C8.52284974,6.69900259 8.33072539,6.89112694 8.09323834,6.89112694 L3.83848446,6.89112694 C3.60099741,6.89112694 3.40887306,6.69900259 3.40887306,6.46151554 C3.40887306,6.2240285 3.60099741,6.03190415 3.83848446,6.03190415 L8.09323834,6.03190415 C8.32939119,6.03190415 8.52284974,6.2240285 8.52284974,6.46151554 Z M8.52685233,3.89985751 C8.52685233,4.13734456 8.33472798,4.32946891 8.09724093,4.32946891 L3.84382124,4.32946891 C3.6063342,4.32946891 3.41420984,4.13734456 3.41420984,3.89985751 C3.41420984,3.66237047 3.6063342,3.47024611 3.84382124,3.47024611 L8.09857513,3.47024611 C8.33472798,3.47024611 8.52685233,3.66237047 8.52685233,3.89985751 L8.52685233,3.89985751 Z" id="形状"></path>
                    </g>
                </g>
            </g>
        </g>
    </g>
</svg>