<?xml version="1.0" encoding="UTF-8"?>
<svg width="21px" height="21px" viewBox="0 0 21 21" version="1.1" xmlns="http://www.w3.org/2000/svg" xmlns:xlink="http://www.w3.org/1999/xlink">
    <title>帮助中心</title>
    <g id="统一头部组件" stroke="none" stroke-width="1" fill="none" fill-rule="evenodd">
        <g id="统一头部组件1" transform="translate(-1596.000000, -376.000000)">
            <g id="编组-9备份-3" transform="translate(1570.000000, 53.001000)">
                <g id="帮助中心" transform="translate(26.500000, 323.283054)">
                    <rect id="矩形备份-2" fill="#EBFBF1" x="0" y="0" width="20" height="20" rx="1"></rect>
                    <g id="139帮助、灯" opacity="0.800000012" transform="translate(5.000000, 3.318785)" fill="#38CA7F" fill-rule="nonzero">
                        <path d="M0,5.00149209 C0,3.62727544 0.487914056,2.45598329 1.4577738,1.47120263 C2.42763354,0.487914056 3.60638615,0 4.98657117,0 C6.36675619,0 7.5455088,0.487914056 8.52879737,1.47120263 C9.51208594,2.4544912 10,3.62727544 10,5.00149209 C10,5.19098776 9.99403163,5.38495971 9.97314235,5.57594748 C9.94180842,5.60728141 9.94777678,5.67293345 9.94777678,5.70725157 L9.86869591,6.17576843 C9.83736198,6.17576843 9.84333035,6.22053118 9.84333035,6.2548493 C9.79110713,6.43091614 9.73888392,6.5875858 9.6866607,6.72336616 L9.6866607,6.75022381 C9.6866607,6.75022381 9.68069233,6.75619218 9.65980304,6.77558938 C9.58818263,6.96508505 9.52253059,7.13518353 9.45240227,7.27096389 C9.45240227,7.29036109 9.4464339,7.29782155 9.42554461,7.29782155 C9.34198747,7.47388839 9.24201731,7.63652641 9.13906297,7.79319606 C9.03461653,7.94986571 8.92420173,8.10504327 8.8003581,8.26171292 L8.78692927,8.27514175 L8.77350045,8.28857058 C8.66905401,8.4124142 8.54521038,8.53028947 8.40943002,8.652641 C8.40943002,8.652641 8.39600119,8.65860937 8.37063563,8.67800657 C8.30498359,8.72276932 8.29901522,8.76156371 8.22739481,8.83467622 C8.19606088,8.83467622 8.14980603,8.85407341 8.14980603,8.88689943 L7.90211877,9.08087138 L7.84989555,9.11966577 L7.81110116,9.14652343 C7.65443151,9.27036705 7.54401671,9.40614742 7.4723963,9.56281707 C7.40077589,9.71948672 7.33661594,9.82990152 7.26499552,9.90152193 C7.19337511,9.97314235 7.06356312,10.0059684 6.87406744,10.0059684 L3.12593256,10.0059684 C2.93643688,10.0059684 2.80662489,9.97463444 2.73500448,9.90152193 C2.66338406,9.82990152 2.59176365,9.71799463 2.51417487,9.56281707 C2.435094,9.40614742 2.3246792,9.26887496 2.18889884,9.14652343 C2.16950164,9.14652343 2.15756491,9.14055506 2.13667562,9.11966577 L2.09788123,9.08087138 L1.85019397,8.88839152 L1.7711131,8.83616831 L1.66666667,8.73172187 L1.5875858,8.652641 L1.22351537,8.28857058 L1.21008654,8.27514175 L1.19665771,8.26171292 C0.954938824,7.94986571 0.747538048,7.64249478 0.571471203,7.29931364 C0.552074008,7.29931364 0.544613548,7.29334527 0.544613548,7.27245598 C0.472993136,7.13667562 0.408833184,6.96657714 0.337212772,6.77708147 C0.317815577,6.77708147 0.310355118,6.7711131 0.310355118,6.75171591 L0.310355118,6.72485825 C0.258131901,6.5875858 0.205908684,6.43091614 0.153685467,6.25634139 C0.153685467,6.25634139 0.147717099,6.24291256 0.14025664,6.217547 L0.126827813,6.17875261 C0.0954938824,6.04297225 0.068636228,5.8848105 0.0477469412,5.71023575 C0.0477469412,5.67890182 0.0208892868,5.61324978 0.0208892868,5.57893166 C0.00746045956,5.38645181 0,5.19098776 0,5.00149209 L0,5.00149209 Z M2.94240525,10.8370636 L7.10981796,10.8370636 C7.35153685,10.8370636 7.52611161,11.0131304 7.52611161,11.2533572 C7.52611161,11.4950761 7.35004476,11.6696509 7.10981796,11.6696509 L2.94240525,11.6696509 C2.70068636,11.6696509 2.52611161,11.493584 2.52611161,11.2533572 C2.52611161,11.0131304 2.70367055,10.8370636 2.94240525,10.8370636 Z M3.12593256,12.5022381 L6.90241719,12.5022381 L5.36556252,13.2840943 C5.12384363,13.3885407 4.85079081,13.3885407 4.61056401,13.2840943 L3.12593256,12.5022381 L3.12593256,12.5022381 Z M5.4431513,2.50223814 C5.94449418,2.50223814 6.41897941,2.70367055 6.86213071,3.11399582 C7.30528201,3.52282901 7.52611161,4.03163235 7.52611161,4.63742167 C7.52611161,4.84482244 7.70217845,5.05371531 7.94240525,5.05371531 C8.18263205,5.05371531 8.3586989,4.84631453 8.3586989,4.63742167 C8.3586989,3.73321397 8.06475679,3.01700985 7.4723963,2.47687258 C6.88301999,1.9367353 6.20561027,1.66815876 5.4431513,1.66815876 C5.20143241,1.66815876 5.02685765,1.8442256 5.02685765,2.0844524 C5.02685765,2.32617129 5.2029245,2.50223814 5.4431513,2.50223814 Z" id="形状"></path>
                    </g>
                </g>
            </g>
        </g>
    </g>
</svg>