<?xml version="1.0" encoding="UTF-8"?>
<svg width="15px" height="15px" viewBox="0 0 15 15" version="1.1" xmlns="http://www.w3.org/2000/svg" xmlns:xlink="http://www.w3.org/1999/xlink">
    <title>退出</title>
    <g id="统一头部组件" stroke="none" stroke-width="1" fill="none" fill-rule="evenodd">
        <g id="统一头部组件1" transform="translate(-1685.000000, -445.000000)" fill="#666666" fill-rule="nonzero">
            <g id="编组-9备份-3" transform="translate(1570.000000, 53.001000)">
                <g id="编组-11" transform="translate(115.500000, 390.765669)">
                    <g id="退出" transform="translate(0.000000, 1.482287)">
                        <path d="M7.65624951,0.656249505 L7.65624951,6.34374518 C7.65624951,6.78124485 7.43749967,7 7,7 L7,7 C6.56250033,7 6.34375049,6.78124485 6.34375049,6.34374518 L6.34375049,0.656249505 C6.34375049,0.218749835 6.56250033,0 7,0 L7,0 C7.43749967,0 7.65624951,0.218749835 7.65624951,0.656249505 Z" id="路径"></path>
                        <path d="M2.40625349,1.9687485 C2.66930531,1.96891076 2.90684196,2.12613373 3.0097726,2.36821134 C3.11270324,2.61028895 3.06113581,2.89043806 2.87875313,3.07999767 C0.739588127,5.32923804 0.798928009,8.87823095 3.01209177,11.0546995 C5.22525553,13.231168 8.77474449,13.231168 10.9879082,11.0546995 C13.201072,8.87823095 13.2604119,5.32923804 11.1212469,3.07999767 C10.9565002,2.81307957 11.0036724,2.46689421 11.2338286,2.25378661 C11.4639848,2.04067901 11.8127707,2.02023655 12.0662462,2.20499833 C14.7041093,4.97163774 14.6346796,9.34285528 11.910282,12.0243238 C9.18588445,14.7057924 4.81411555,14.7057924 2.08971798,12.0243238 C-0.634679594,9.34285528 -0.704109327,4.97163774 1.93375385,2.20499833 C2.05050667,2.06265863 2.22233003,1.97674694 2.40625349,1.9687485 L2.40625349,1.9687485 Z" id="路径"></path>
                    </g>
                </g>
            </g>
        </g>
    </g>
</svg>