<?xml version="1.0" encoding="UTF-8"?>
<svg width="21px" height="21px" viewBox="0 0 21 21" version="1.1" xmlns="http://www.w3.org/2000/svg" xmlns:xlink="http://www.w3.org/1999/xlink">
    <title>我的信息</title>
    <g id="统一头部组件" stroke="none" stroke-width="1" fill="none" fill-rule="evenodd">
        <g id="统一头部组件1" transform="translate(-1596.000000, -216.000000)">
            <g id="编组-9备份-3" transform="translate(1570.000000, 53.001000)">
                <g id="我的信息" transform="translate(26.500000, 163.283054)">
                    <rect id="矩形" fill="#FFF4DD" x="0" y="0" width="20" height="20" rx="1"></rect>
                    <g id="订单完成" opacity="0.800000012" transform="translate(4.500000, 3.954583)" fill="#F9AC50" fill-rule="nonzero">
                        <path d="M3.2954619,1.88312109 C3.13106244,1.88312109 2.98908109,1.74113974 2.98908109,1.57674028 L2.98908109,0.306380812 C2.98908109,0.141981352 3.13106244,0 3.2954619,0 L7.71182922,0 C7.87622868,0 8.01821003,0.141981352 8.01821003,0.306380812 L8.01821003,1.56179487 C8.01821003,1.72619433 7.87622868,1.86817568 7.71182922,1.86817568 L3.2954619,1.86817568 L3.2954619,1.88312109 Z" id="路径"></path>
                        <path d="M10.5140927,1.06112379 L8.69075327,1.06112379 L8.69075327,2.07741136 C8.69075327,2.31653785 8.496463,2.50335541 8.26480922,2.50335541 L2.7424819,2.50335541 C2.51082812,2.50335541 2.31653785,2.30906514 2.31653785,2.07741136 L2.31653785,1.06859649 L0.49319838,1.06859649 C0.224181082,1.06859649 0,1.28530487 0,1.56179487 L0,11.5976346 C0,11.8666519 0.216708379,12.090833 0.49319838,12.090833 L10.5290381,12.090833 C10.7457465,12.090833 10.9998184,12.0310514 10.9998184,11.5901619 L10.9998184,1.55432217 C11.0072911,1.29277757 10.78311,1.06112379 10.5140927,1.06112379 Z M8.54877192,5.42518218 L4.99923813,8.96724327 C4.81242056,9.15406084 4.52098515,9.15406084 4.33416758,8.96724327 L2.43610109,7.06917678 C2.24928352,6.88235921 2.24928352,6.59092381 2.43610109,6.40410624 C2.62291866,6.21728867 2.91435406,6.21728867 3.10117163,6.40410624 L4.67043921,7.95842841 L7.87622868,4.75263894 C8.06304624,4.56582137 8.35448165,4.56582137 8.54129922,4.75263894 C8.63844435,4.84978407 8.69075327,4.96187461 8.69075327,5.08891056 C8.69075327,5.2159465 8.64591706,5.32803705 8.54877192,5.42518218 Z" id="形状"></path>
                    </g>
                </g>
            </g>
        </g>
    </g>
</svg>