<?xml version="1.0" encoding="UTF-8"?>
<svg width="21px" height="21px" viewBox="0 0 21 21" version="1.1" xmlns="http://www.w3.org/2000/svg" xmlns:xlink="http://www.w3.org/1999/xlink">
    <title>合作伙伴</title>
    <g id="统一头部组件" stroke="none" stroke-width="1" fill="none" fill-rule="evenodd">
        <g id="统一头部组件1" transform="translate(-1596.000000, -266.000000)">
            <g id="编组-9备份-3" transform="translate(1570.000000, 53.001000)">
                <g id="合作伙伴" transform="translate(26.500000, 213.283054)">
                    <rect id="矩形备份-4" fill="#FFEEEE" x="0" y="0" width="20" height="20" rx="1"></rect>
                    <g id="链接,链条" transform="translate(3.932994, 4.000000)" fill="#F44E21" fill-rule="nonzero">
                        <path d="M11.5267866,0.568390243 L11.4975183,0.539121948 C10.7786891,-0.179707316 9.60093295,-0.179707316 8.88210368,0.539121948 L6.31703051,3.10536586 C5.74688417,3.6755122 5.62864027,4.53365854 5.96229879,5.22321951 C6.03137197,5.36721951 6.00327441,5.53814634 5.88971344,5.65170732 L5.71644514,5.82497562 C5.60405489,5.93736586 5.43195733,5.96663416 5.28795733,5.89756097 C4.59839635,5.56390243 3.74025002,5.68214634 3.17010368,6.25229269 L0.60620123,8.81619513 C-0.112628033,9.53502439 -0.112628033,10.7127805 0.60620123,11.4316098 L0.635469525,11.4608781 C1.35429879,12.1797073 2.53205489,12.1797073 3.25088417,11.4608781 L5.81595733,8.89463414 C6.38493294,8.32565853 6.50434757,7.46985366 6.17303051,6.78146341 C6.10395734,6.63863415 6.13322563,6.46653659 6.24561588,6.35414634 L6.42122562,6.17853658 C6.53361587,6.06614634 6.70454269,6.03687804 6.8485427,6.10595122 C7.53693294,6.4372683 8.39273782,6.31785366 8.96171344,5.74887805 L11.5279573,3.18263415 C12.2467866,2.46497561 12.2467866,1.28839024 11.5267866,0.568390243 Z M4.47898172,8.12195122 C4.33029879,8.27063415 4.0867866,8.26829269 3.94161587,8.1137561 C3.80112807,7.96507318 3.81049393,7.73092683 3.95449392,7.5857561 L4.86532319,6.67492683 C4.92971344,6.61053658 5.03039636,6.60234146 5.10532319,6.65385366 C5.15917684,6.69131708 5.20951831,6.73346342 5.25751831,6.78029269 L5.28678661,6.80956097 C5.33595734,6.85873171 5.37927441,6.9102439 5.41673783,6.96643903 C5.46825002,7.04136586 5.45888417,7.14204879 5.39449392,7.20526829 L4.47898172,8.12195122 Z M8.0555671,4.54536586 L7.27234758,5.32858537 C7.20795733,5.39297562 7.10844514,5.40117074 7.03351831,5.35082927 C6.97732319,5.31219512 6.92464026,5.26887806 6.87664027,5.22087805 L6.84737197,5.19160975 C6.8005427,5.14478048 6.75839636,5.09326829 6.72093295,5.04058537 C6.66942075,4.96565854 6.67761587,4.86497561 6.74200612,4.80058537 L7.52639636,4.01619512 C7.67273782,3.86985366 7.91039636,3.86985366 8.05673782,4.01619512 C8.20190855,4.16136585 8.20190855,4.39902439 8.0555671,4.54536586 L8.0555671,4.54536586 Z" id="形状"></path>
                        <path d="M4.20340483,1.93149517 C4.16673966,2.12004974 3.98416299,2.24318043 3.79560842,2.20651526 C3.60705385,2.16985009 3.48392316,1.98727342 3.52058833,1.79871885 L3.81550941,0.281451905 C3.83921381,0.159478486 3.92618962,0.0594165443 4.0436739,0.0189584459 C4.16115818,-0.0214996524 4.29130227,0.00379263971 4.38508215,0.0853079607 C4.47886203,0.166823282 4.52203031,0.292177515 4.49832591,0.414150935 L4.20340483,1.93149517 Z M0.281479985,4.08227053 C0.0929254156,4.04560536 -0.0302052734,3.86302869 0.00645989353,3.67447412 C0.0431250605,3.48591955 0.225701731,3.36278886 0.4142563,3.39945403 L1.93152325,3.6944524 C2.0547828,3.71683331 2.15648087,3.80377541 2.19775572,3.92205562 C2.23903057,4.04033583 2.21350328,4.17167426 2.13092856,4.26588274 C2.04835383,4.36009121 1.92149338,4.40261006 1.79882422,4.37719161 L0.281479985,4.08227053 L0.281479985,4.08227053 Z M1.10147807,1.39273865 C0.975454892,1.24778533 0.990800813,1.02811547 1.13575414,0.902092299 C1.28070747,0.776069127 1.50037732,0.791415048 1.62640049,0.936368374 L2.64046221,2.10291418 C2.72374673,2.19644861 2.75030915,2.32753868 2.71000419,2.4461157 C2.66969923,2.56469272 2.56875226,2.65244168 2.44571909,2.67584762 C2.32268592,2.69925357 2.19656984,2.65470131 2.11553978,2.55920718 L1.10147807,1.39266137 L1.10147807,1.39273865 Z M8.07138446,10.0762942 C8.08652932,9.95296782 8.16631759,9.84708923 8.2806938,9.79854187 C8.39507,9.74999452 8.52665768,9.76615389 8.62588903,9.84093292 C8.72512038,9.91571194 8.77691979,10.0377499 8.76177493,10.1610763 L8.57335313,11.6951914 C8.54963076,11.8855357 8.37627544,12.0207352 8.18588624,11.9973761 C7.99549705,11.9740171 7.85996697,11.8009201 7.88296266,11.6104866 L8.07138446,10.0762942 L8.07138446,10.0762942 Z M11.833715,7.65726122 C12.0219779,7.68322893 12.1545351,7.85551009 12.1313892,8.04414073 C12.1082433,8.23277137 11.9379662,8.36789329 11.7490102,8.3475744 L10.2148177,8.15922988 C10.0241717,8.13581795 9.8886016,7.96228967 9.91201353,7.77164361 C9.93542545,7.58099755 10.1089537,7.4454275 10.2995998,7.46883941 L11.833715,7.65726122 L11.833715,7.65726122 Z M11.1804988,10.4520558 C11.3037251,10.5972784 11.2872219,10.8146025 11.1434793,10.9395519 C10.9997366,11.0645014 10.7822311,11.0505911 10.6555763,10.9083488 L9.64151462,9.74180299 C9.51549146,9.59684966 9.53083739,9.37717982 9.67579071,9.25115665 C9.82074403,9.12513348 10.0404139,9.1404794 10.1664371,9.28543271 L11.1804988,10.4520558 L11.1804988,10.4520558 Z" id="形状"></path>
                    </g>
                </g>
            </g>
        </g>
    </g>
</svg>