<?xml version="1.0" encoding="UTF-8"?>
<svg width="21px" height="21px" viewBox="0 0 21 21" version="1.1" xmlns="http://www.w3.org/2000/svg" xmlns:xlink="http://www.w3.org/1999/xlink">
    <title>线上推广</title>
    <g id="统一头部组件" stroke="none" stroke-width="1" fill="none" fill-rule="evenodd">
        <g id="统一头部组件1" transform="translate(-1654.000000, -315.000000)" fill="#0067CC">
            <g id="线上推广" transform="translate(1654.028481, 315.966946)">
                <rect id="矩形备份-5" opacity="0.0976591564" x="0" y="0" width="20" height="20" rx="1"></rect>
                <g id="推广" transform="translate(4.000000, 4.789321)" fill-rule="nonzero">
                    <path d="M10.6016095,0.0429512786 C10.8905641,-0.0404192426 11.2016246,-0.00126036637 11.4605785,0.150322399 C11.9599895,0.440549956 12.144035,1.07144419 11.8790101,1.58467432 L11.8490093,1.63867568 L7.0593097,9.73224799 C6.98093494,9.86460889 6.88128122,9.98314772 6.76435489,10.0830989 C6.19590159,10.5684 5.3477877,10.5268732 4.82946405,9.9883597 L4.78083125,9.93498993 L4.34945195,9.43666159 L3.78227978,9.96878026 C3.59629997,10.1430295 3.3554568,10.2470934 3.10110472,10.2631035 L3.03162928,10.2653141 C2.44740403,10.2653141 1.97054992,9.81056575 1.93897018,9.23770921 L1.93739119,9.1780235 L1.93739119,7.71019705 C1.93739119,7.19544725 2.17108129,6.7091192 2.57056504,6.38574264 L2.63498772,6.33584664 L7.54658512,2.7284926 C7.75491718,2.57553828 8.04762036,2.61924637 8.20218059,2.82638982 C8.34548537,3.01914418 8.31809173,3.28938248 8.1390211,3.44945813 L8.10365179,3.4778799 L3.19205438,7.08554973 C3.00904377,7.21974142 2.89398562,7.42735386 2.87720434,7.65366931 L2.87530955,7.71019705 L2.87530955,9.1780235 C2.87524469,9.2350344 2.90634594,9.28752129 2.95638301,9.31484417 C3.00642008,9.34216704 3.06738951,9.33995558 3.11531561,9.30907943 L3.13868461,9.29107897 L4.06302369,8.42389924 C4.2447102,8.25385474 4.52734582,8.25454646 4.70819783,8.42547823 L4.74040917,8.45895275 L5.49200705,9.32739569 C5.58510528,9.43450917 5.72157489,9.49388218 5.86340767,9.48897871 C6.00524044,9.48407524 6.13728381,9.41541916 6.22276231,9.30213189 L6.25118408,9.25949923 L11.0408837,1.16624272 C11.0715026,1.11527232 11.0702076,1.0512656 11.0375521,1.00157536 C11.0048966,0.951885128 10.9466572,0.925301275 10.8877219,0.933184221 L10.8624581,0.938236989 L1.27642718,3.6992539 C1.13189072,3.74034708 1.01608081,3.84868559 0.965454058,3.9901648 C0.914827305,4.13164402 0.93561113,4.28886107 1.02126285,4.4123245 L1.052211,4.45179917 L1.70749067,5.20434446 C1.78874584,5.29762356 1.82940942,5.41947619 1.82045662,5.54285869 C1.81150383,5.66624119 1.75367527,5.7809471 1.65980525,5.8615189 C1.47632694,6.01941761 1.20442535,6.01057528 1.03136837,5.848887 L0.998525433,5.81414928 L0.343245778,5.06191981 C0.210511389,4.90952822 0.112459445,4.73012549 0.0558701075,4.53611709 C-0.15381938,3.81609895 0.244716965,3.06450107 0.950208426,2.82449503 L1.0152627,2.80428399 L10.6016095,0.0429512786 L10.6016095,0.0429512786 Z" id="路径"></path>
                </g>
            </g>
        </g>
    </g>
</svg>